%TF.GenerationSoftware,KiCad,Pcbnew,10.0.6*%
%TF.CreationDate,2026-10-09T17:00:02+05:30*%
%TF.ProjectId,notastarboy,6e6f7461-7374-4617-9262-6f792e6b6963,rev?*%
%TF.SameCoordinates,Original*%
%TF.FileFunction,Legend,Bot*%
%TF.FilePolarity,Positive*%
%FSLAX46Y46*%
G04 Gerber Fmt 4.6, Leading zero omitted, Abs format (unit mm)*
G04 Created by KiCad (PCBNEW 10.0.6) date 2026-10-09 17:00:02*
%MOMM*%
%LPD*%
G01*
G04 APERTURE LIST*
%ADD10C,0.300000*%
%ADD11C,0.000000*%
%ADD12C,1.524000*%
%ADD13O,3.800000X2.900000*%
%ADD14R,1.700000X1.700000*%
%ADD15O,1.700000X1.700000*%
%ADD16C,2.200000*%
%ADD17C,1.700000*%
%ADD18C,4.000000*%
%ADD19R,1.500000X1.500000*%
%ADD20C,1.500000*%
%ADD21C,1.400000*%
%ADD22R,1.524000X1.524000*%
G04 APERTURE END LIST*
D10*
X109321427Y-92249757D02*
X109464285Y-92178328D01*
X109464285Y-92178328D02*
X109678570Y-92178328D01*
X109678570Y-92178328D02*
X109892856Y-92249757D01*
X109892856Y-92249757D02*
X110035713Y-92392614D01*
X110035713Y-92392614D02*
X110107142Y-92535471D01*
X110107142Y-92535471D02*
X110178570Y-92821185D01*
X110178570Y-92821185D02*
X110178570Y-93035471D01*
X110178570Y-93035471D02*
X110107142Y-93321185D01*
X110107142Y-93321185D02*
X110035713Y-93464042D01*
X110035713Y-93464042D02*
X109892856Y-93606900D01*
X109892856Y-93606900D02*
X109678570Y-93678328D01*
X109678570Y-93678328D02*
X109535713Y-93678328D01*
X109535713Y-93678328D02*
X109321427Y-93606900D01*
X109321427Y-93606900D02*
X109249999Y-93535471D01*
X109249999Y-93535471D02*
X109249999Y-93035471D01*
X109249999Y-93035471D02*
X109535713Y-93035471D01*
X108392856Y-92178328D02*
X108392856Y-92535471D01*
X108749999Y-92392614D02*
X108392856Y-92535471D01*
X108392856Y-92535471D02*
X108035713Y-92392614D01*
X108607142Y-92821185D02*
X108392856Y-92535471D01*
X108392856Y-92535471D02*
X108178570Y-92821185D01*
X107249999Y-92178328D02*
X107249999Y-92535471D01*
X107607142Y-92392614D02*
X107249999Y-92535471D01*
X107249999Y-92535471D02*
X106892856Y-92392614D01*
X107464285Y-92821185D02*
X107249999Y-92535471D01*
X107249999Y-92535471D02*
X107035713Y-92821185D01*
X106107142Y-92178328D02*
X106107142Y-92535471D01*
X106464285Y-92392614D02*
X106107142Y-92535471D01*
X106107142Y-92535471D02*
X105749999Y-92392614D01*
X106321428Y-92821185D02*
X106107142Y-92535471D01*
X106107142Y-92535471D02*
X105892856Y-92821185D01*
D11*
%TO.C,G\u002A\u002A\u002A*%
G36*
X122986000Y-90615690D02*
G01*
X122986000Y-90961203D01*
X123663333Y-90961203D01*
X124340667Y-90961203D01*
X124340667Y-91301003D01*
X124340667Y-91640802D01*
X124679333Y-91640802D01*
X125018000Y-91640802D01*
X125018000Y-91980601D01*
X125018663Y-92080868D01*
X125040284Y-92246597D01*
X125124602Y-92310114D01*
X125314333Y-92320401D01*
X125610667Y-92320401D01*
X125610667Y-94019397D01*
X125610667Y-95718394D01*
X125293167Y-95718247D01*
X124975667Y-95718100D01*
X124975667Y-96334133D01*
X124975667Y-96950167D01*
X124658167Y-96976532D01*
X124573275Y-96984186D01*
X124412741Y-97021146D01*
X124350859Y-97121141D01*
X124340667Y-97337569D01*
X124339853Y-97452935D01*
X124315099Y-97606975D01*
X124218775Y-97663975D01*
X124002000Y-97672240D01*
X123663333Y-97672240D01*
X123663333Y-98012039D01*
X123663333Y-98351839D01*
X121970000Y-98351839D01*
X120276667Y-98351839D01*
X120276667Y-98012039D01*
X120276667Y-97672240D01*
X119641667Y-97672240D01*
X119468639Y-97671694D01*
X119212966Y-97663104D01*
X119073672Y-97635604D01*
X119014904Y-97578502D01*
X119000807Y-97481103D01*
X118997666Y-97380814D01*
X118989428Y-97123712D01*
X118979640Y-96822742D01*
X118964333Y-96355518D01*
X118646778Y-96355518D01*
X118329222Y-96355518D01*
X118329278Y-94337959D01*
X118329333Y-92320401D01*
X118668000Y-92320401D01*
X119006667Y-92320401D01*
X119006667Y-91980601D01*
X119007304Y-91883084D01*
X119028539Y-91715840D01*
X119111413Y-91651401D01*
X119297889Y-91640802D01*
X119339409Y-91640618D01*
X119510498Y-91620404D01*
X119585762Y-91531063D01*
X119615389Y-91322240D01*
X119641667Y-91003678D01*
X120292930Y-90978956D01*
X120944192Y-90954234D01*
X120970263Y-90639157D01*
X120996333Y-90324080D01*
X121991167Y-90297128D01*
X122986000Y-90270177D01*
X122986000Y-90615690D01*
G37*
G36*
X127642667Y-80937123D02*
G01*
X127304000Y-80937123D01*
X126965333Y-80937123D01*
X126965333Y-81616722D01*
X126965333Y-82296320D01*
X126626667Y-82296320D01*
X126288000Y-82296320D01*
X126288000Y-84287513D01*
X126288000Y-86278707D01*
X126605500Y-86305072D01*
X126648762Y-86308829D01*
X126836493Y-86344274D01*
X126918410Y-86439682D01*
X126949278Y-86649999D01*
X126956906Y-86735175D01*
X126993743Y-86896246D01*
X127093404Y-86958335D01*
X127309111Y-86968561D01*
X127419253Y-86969288D01*
X127575980Y-86993395D01*
X127634147Y-87088794D01*
X127642667Y-87304787D01*
X127642667Y-87641013D01*
X128298833Y-87665824D01*
X128955000Y-87690635D01*
X128981278Y-88009197D01*
X129007555Y-88327759D01*
X131831853Y-88327759D01*
X132295362Y-88328452D01*
X132943025Y-88331858D01*
X133525785Y-88337778D01*
X134022756Y-88345848D01*
X134413052Y-88355705D01*
X134675787Y-88366984D01*
X134790075Y-88379322D01*
X134879185Y-88466830D01*
X134922228Y-88649246D01*
X134892525Y-88839032D01*
X134790075Y-88955794D01*
X134690630Y-88977031D01*
X134453722Y-88998886D01*
X134160186Y-89007357D01*
X133664222Y-89007357D01*
X133637944Y-89325919D01*
X133611667Y-89644481D01*
X132955596Y-89644481D01*
X132299526Y-89644481D01*
X132299430Y-89963043D01*
X132298597Y-90066567D01*
X132273806Y-90216678D01*
X132177457Y-90273034D01*
X131960667Y-90281605D01*
X131622000Y-90281605D01*
X131622000Y-90621404D01*
X131622000Y-90961203D01*
X130997583Y-90961203D01*
X130373167Y-90961203D01*
X130320250Y-91226672D01*
X130319422Y-91231011D01*
X130302866Y-91407756D01*
X130289653Y-91718393D01*
X130279781Y-92132547D01*
X130277262Y-92320401D01*
X130273247Y-92619841D01*
X130270048Y-93149900D01*
X130270180Y-93692348D01*
X130273639Y-94216808D01*
X130280424Y-94692905D01*
X130290531Y-95090263D01*
X130303957Y-95378505D01*
X130320698Y-95527257D01*
X130342470Y-95590344D01*
X130445869Y-95691553D01*
X130658208Y-95718394D01*
X130660282Y-95718394D01*
X130852920Y-95733132D01*
X130930392Y-95812222D01*
X130944667Y-96008252D01*
X130945175Y-96067255D01*
X130969735Y-96227168D01*
X131066419Y-96306812D01*
X131283334Y-96355518D01*
X131343478Y-96366054D01*
X131530240Y-96417773D01*
X131607067Y-96510491D01*
X131622000Y-96691927D01*
X131622428Y-96742775D01*
X131646787Y-96899899D01*
X131743494Y-96978275D01*
X131960667Y-97025263D01*
X132035558Y-97037778D01*
X132214238Y-97088017D01*
X132286094Y-97184093D01*
X132299333Y-97375920D01*
X132299333Y-97672240D01*
X132712084Y-97672240D01*
X132824843Y-97673964D01*
X133138749Y-97692674D01*
X133389417Y-97725334D01*
X133539842Y-97767025D01*
X133633631Y-97863494D01*
X133654000Y-98065133D01*
X133654000Y-98351839D01*
X134587429Y-98351839D01*
X134878092Y-98352301D01*
X135190296Y-98357872D01*
X135386769Y-98375340D01*
X135499575Y-98411510D01*
X135560780Y-98473182D01*
X135602450Y-98567160D01*
X135650878Y-98733344D01*
X135663855Y-98885722D01*
X135671364Y-98919039D01*
X135807087Y-98978904D01*
X136109333Y-99010984D01*
X136121958Y-99011584D01*
X136503632Y-99035599D01*
X136747341Y-99073401D01*
X136883618Y-99139569D01*
X136942993Y-99248685D01*
X136956000Y-99415330D01*
X136956000Y-99711036D01*
X137457075Y-99711036D01*
X137678582Y-99715774D01*
X137937621Y-99734502D01*
X138092075Y-99762600D01*
X138156094Y-99806334D01*
X138220226Y-99963101D01*
X138193391Y-100143115D01*
X138077834Y-100266824D01*
X138060703Y-100270885D01*
X137903632Y-100285189D01*
X137610975Y-100300816D01*
X137208483Y-100317110D01*
X136721910Y-100333416D01*
X136177007Y-100349079D01*
X135599529Y-100363444D01*
X135015226Y-100375856D01*
X134449853Y-100385658D01*
X133929161Y-100392196D01*
X133478904Y-100394814D01*
X133124833Y-100392858D01*
X133081927Y-100396540D01*
X132999748Y-100473388D01*
X132976667Y-100678056D01*
X132968839Y-100803820D01*
X132928121Y-100907512D01*
X132831741Y-100978546D01*
X132656983Y-101022313D01*
X132381133Y-101044206D01*
X131981474Y-101049616D01*
X131435293Y-101043935D01*
X130359586Y-101027759D01*
X130306018Y-101346320D01*
X130300973Y-101375821D01*
X130250252Y-101569625D01*
X130155633Y-101649371D01*
X129963558Y-101664882D01*
X129881753Y-101665617D01*
X129738958Y-101690386D01*
X129683803Y-101787090D01*
X129674667Y-102004682D01*
X129674667Y-102344481D01*
X129336000Y-102344481D01*
X128997333Y-102344481D01*
X128997333Y-102684280D01*
X128997333Y-103024080D01*
X128658667Y-103024080D01*
X128320000Y-103024080D01*
X128320000Y-104383277D01*
X128320000Y-105742474D01*
X128607275Y-105742474D01*
X128750778Y-105751285D01*
X128880758Y-105805948D01*
X128955350Y-105937854D01*
X128989294Y-106177766D01*
X128997333Y-106556446D01*
X128997333Y-107101672D01*
X129283083Y-107101672D01*
X129447666Y-107112325D01*
X129563289Y-107184221D01*
X129621750Y-107367140D01*
X129630562Y-107416534D01*
X129661970Y-107699715D01*
X129674667Y-108004264D01*
X129674895Y-108056621D01*
X129690106Y-108264279D01*
X129745799Y-108356010D01*
X129865167Y-108377220D01*
X129940534Y-108379605D01*
X130115083Y-108419447D01*
X130213801Y-108532736D01*
X130253339Y-108750958D01*
X130250345Y-109105597D01*
X130225000Y-109692641D01*
X129731023Y-109718332D01*
X129412602Y-109718312D01*
X129165638Y-109660290D01*
X129035345Y-109526346D01*
X128997333Y-109302661D01*
X128997333Y-109060910D01*
X128002500Y-109036976D01*
X127007667Y-109013043D01*
X126981389Y-108694481D01*
X126955112Y-108375919D01*
X125991667Y-108375919D01*
X125028222Y-108375919D01*
X125001944Y-108057357D01*
X124975667Y-107738795D01*
X122964833Y-107716020D01*
X120954000Y-107693245D01*
X120954000Y-108034582D01*
X120954000Y-108375919D01*
X120615333Y-108375919D01*
X120276667Y-108375919D01*
X120276667Y-110424971D01*
X120276667Y-111391638D01*
X120276667Y-114407357D01*
X119980333Y-114407357D01*
X119976555Y-114407357D01*
X119802713Y-114399005D01*
X119710054Y-114346191D01*
X119669082Y-114207153D01*
X119650298Y-113940133D01*
X119638107Y-113871874D01*
X119546201Y-113784017D01*
X119328990Y-113744157D01*
X119298291Y-113741511D01*
X119106096Y-113706714D01*
X119021838Y-113612788D01*
X118990324Y-113404357D01*
X118987687Y-113373555D01*
X118953006Y-113180718D01*
X118859393Y-113096178D01*
X118651657Y-113064558D01*
X118620958Y-113061912D01*
X118428763Y-113027116D01*
X118344505Y-112933190D01*
X118312990Y-112724759D01*
X118309543Y-112684920D01*
X118274318Y-112497795D01*
X118179207Y-112415767D01*
X117969500Y-112384671D01*
X117924251Y-112380744D01*
X117739542Y-112346865D01*
X117665521Y-112258772D01*
X117652000Y-112066109D01*
X117643285Y-111903299D01*
X117586855Y-111797966D01*
X117447258Y-111773912D01*
X117402523Y-111773447D01*
X117144256Y-111733745D01*
X117011922Y-111611962D01*
X116974667Y-111382549D01*
X116960281Y-111187562D01*
X116882037Y-111108839D01*
X116687392Y-111094314D01*
X116650469Y-111093750D01*
X116437306Y-111045647D01*
X116328083Y-110898097D01*
X116297333Y-110620142D01*
X116296702Y-110578213D01*
X116276070Y-110486677D01*
X116198262Y-110437807D01*
X116025898Y-110418265D01*
X115721600Y-110414715D01*
X115628403Y-110414066D01*
X115285992Y-110389868D01*
X115076411Y-110318975D01*
X114971392Y-110185354D01*
X114942667Y-109972976D01*
X114942667Y-109735116D01*
X114307667Y-109735116D01*
X113672667Y-109735116D01*
X113672667Y-109395317D01*
X113672667Y-109055518D01*
X111302000Y-109055518D01*
X108931333Y-109055518D01*
X108931333Y-109391744D01*
X108931333Y-109727970D01*
X108275167Y-109752781D01*
X108056458Y-109763425D01*
X107792781Y-109791119D01*
X107652794Y-109836120D01*
X107607600Y-109905016D01*
X107599480Y-110010086D01*
X107586433Y-110223578D01*
X107582323Y-110272701D01*
X107550602Y-110351068D01*
X107458254Y-110393644D01*
X107269054Y-110411251D01*
X106946778Y-110414715D01*
X106316889Y-110414715D01*
X106290611Y-110733277D01*
X106286867Y-110776684D01*
X106251540Y-110965042D01*
X106156450Y-111047233D01*
X105946833Y-111078204D01*
X105902250Y-111082071D01*
X105717175Y-111115905D01*
X105642930Y-111203739D01*
X105629333Y-111395762D01*
X105628802Y-111457059D01*
X105604224Y-111616392D01*
X105507575Y-111694747D01*
X105290667Y-111741291D01*
X105227107Y-111751861D01*
X105042180Y-111801805D01*
X104966523Y-111894271D01*
X104952000Y-112076966D01*
X104951863Y-112110398D01*
X104931871Y-112279388D01*
X104842784Y-112354627D01*
X104634500Y-112384671D01*
X104591238Y-112388428D01*
X104403508Y-112423873D01*
X104321591Y-112519280D01*
X104290723Y-112729598D01*
X104283094Y-112814774D01*
X104246257Y-112975844D01*
X104146596Y-113037934D01*
X103930889Y-113048160D01*
X103815908Y-113048976D01*
X103662382Y-113073813D01*
X103605572Y-113170459D01*
X103597333Y-113387959D01*
X103596532Y-113505093D01*
X103572151Y-113661493D01*
X103477281Y-113719366D01*
X103263778Y-113727759D01*
X103174545Y-113728334D01*
X103004038Y-113750826D01*
X102931579Y-113841116D01*
X102903944Y-114046320D01*
X102902633Y-114061947D01*
X102870495Y-114263515D01*
X102792142Y-114347858D01*
X102623667Y-114364882D01*
X102369667Y-114364882D01*
X102327333Y-113387959D01*
X102285000Y-112411036D01*
X101988667Y-112368561D01*
X101692333Y-112326086D01*
X101669339Y-110690802D01*
X101646344Y-109055518D01*
X101309505Y-109055518D01*
X100972667Y-109055518D01*
X100972667Y-108375919D01*
X100972667Y-107696320D01*
X100634000Y-107696320D01*
X100295333Y-107696320D01*
X100295333Y-107356521D01*
X100295333Y-107016722D01*
X99956667Y-107016722D01*
X99846545Y-107015968D01*
X99687001Y-106992691D01*
X99627124Y-106902077D01*
X99618056Y-106698160D01*
X99617731Y-106624929D01*
X99597275Y-106454914D01*
X99508353Y-106389997D01*
X99300556Y-106379598D01*
X99239699Y-106379318D01*
X99061849Y-106358856D01*
X98985681Y-106269584D01*
X98956723Y-106061036D01*
X98930445Y-105742474D01*
X96945889Y-105742474D01*
X94961333Y-105742474D01*
X94961333Y-106030710D01*
X94931833Y-106243004D01*
X94827409Y-106370509D01*
X94748636Y-106385702D01*
X94519531Y-106404467D01*
X94192928Y-106417311D01*
X93811409Y-106422073D01*
X92929333Y-106422073D01*
X92929333Y-106715824D01*
X92929333Y-107009575D01*
X92273167Y-107034386D01*
X91617000Y-107059197D01*
X91590723Y-107377759D01*
X91564445Y-107696320D01*
X90934556Y-107696320D01*
X90304667Y-107696320D01*
X90303370Y-107929932D01*
X90266285Y-108193580D01*
X90141452Y-108338367D01*
X89914480Y-108361484D01*
X89669667Y-108333444D01*
X89669667Y-107398996D01*
X89669667Y-106464548D01*
X89966000Y-106422073D01*
X90262333Y-106379598D01*
X90285273Y-104707073D01*
X90308212Y-103034548D01*
X89988939Y-103008076D01*
X89942194Y-103004009D01*
X89755486Y-102968411D01*
X89674080Y-102872925D01*
X89643389Y-102663043D01*
X89617112Y-102344481D01*
X88944889Y-102344481D01*
X88272667Y-102344481D01*
X88272667Y-102007378D01*
X88272667Y-101670274D01*
X87277833Y-101646341D01*
X86283000Y-101622407D01*
X86258038Y-101325083D01*
X86233075Y-101027759D01*
X83866797Y-101051579D01*
X83511402Y-101054792D01*
X82787969Y-101057792D01*
X82210873Y-101053202D01*
X81764036Y-101039565D01*
X81431379Y-101015425D01*
X81196823Y-100979325D01*
X81044289Y-100929808D01*
X80957698Y-100865419D01*
X80920972Y-100784699D01*
X80924409Y-100616143D01*
X81038232Y-100485373D01*
X81284496Y-100412948D01*
X81679034Y-100390635D01*
X82261333Y-100390635D01*
X82261333Y-100050835D01*
X82261333Y-99711036D01*
X82600000Y-99711036D01*
X82938667Y-99711036D01*
X83616000Y-99711036D01*
X83616000Y-100008361D01*
X83616000Y-100305685D01*
X86283000Y-100305685D01*
X88950000Y-100305685D01*
X88950000Y-100641911D01*
X88950000Y-100978137D01*
X89606167Y-101002948D01*
X90262333Y-101027759D01*
X90288611Y-101346320D01*
X90314889Y-101664882D01*
X90987111Y-101664882D01*
X91659333Y-101664882D01*
X91659333Y-102344481D01*
X91659333Y-103024080D01*
X91976833Y-103024306D01*
X92294333Y-103024533D01*
X92301232Y-103703905D01*
X92308131Y-104383277D01*
X91983732Y-104383277D01*
X91659333Y-104383277D01*
X91659333Y-105062876D01*
X91659333Y-105742474D01*
X91320667Y-105742474D01*
X91220734Y-105743139D01*
X91055558Y-105764833D01*
X90992253Y-105849432D01*
X90982000Y-106039799D01*
X90982000Y-106337123D01*
X91617000Y-106337123D01*
X92252000Y-106337123D01*
X92252049Y-106018561D01*
X92252098Y-105699999D01*
X93162216Y-105708800D01*
X93457569Y-105709556D01*
X93800190Y-105704533D01*
X94053765Y-105693773D01*
X94178167Y-105678474D01*
X94193030Y-105669914D01*
X94257711Y-105543106D01*
X94283945Y-105329874D01*
X94284252Y-105262879D01*
X94304682Y-105095432D01*
X94393620Y-105030974D01*
X94601445Y-105020401D01*
X94663949Y-105020131D01*
X94839198Y-105001021D01*
X94907438Y-104917710D01*
X94919000Y-104723076D01*
X94919000Y-104425752D01*
X93926303Y-104401837D01*
X93155889Y-104383277D01*
X94951112Y-104383277D01*
X97279445Y-104383277D01*
X99607778Y-104383277D01*
X99611282Y-104425752D01*
X99634056Y-104701839D01*
X99637537Y-104742291D01*
X99672630Y-104932259D01*
X99766459Y-105015358D01*
X99973010Y-105046478D01*
X100003709Y-105049123D01*
X100195904Y-105083920D01*
X100280162Y-105177846D01*
X100311677Y-105386277D01*
X100315081Y-105425828D01*
X100348710Y-105611981D01*
X100437635Y-105686453D01*
X100634000Y-105699999D01*
X100679336Y-105700204D01*
X100851708Y-105720479D01*
X100927124Y-105809802D01*
X100956611Y-106018561D01*
X100964239Y-106103737D01*
X101001077Y-106264808D01*
X101100738Y-106326897D01*
X101316444Y-106337123D01*
X101650000Y-106337123D01*
X101650000Y-107016722D01*
X101650000Y-107696320D01*
X101988667Y-107696320D01*
X102327333Y-107696320D01*
X102327333Y-109055518D01*
X102327333Y-110414715D01*
X102666000Y-110414715D01*
X103004667Y-110414715D01*
X103004667Y-111051839D01*
X103004667Y-111688963D01*
X103301000Y-111688963D01*
X103323556Y-111688926D01*
X103510281Y-111672639D01*
X103584227Y-111590914D01*
X103597333Y-111391638D01*
X103598091Y-111303905D01*
X103622801Y-111158892D01*
X103719164Y-111103315D01*
X103936000Y-111094314D01*
X104274667Y-111094314D01*
X104274667Y-110754514D01*
X104274667Y-110414715D01*
X104613333Y-110414715D01*
X104952000Y-110414715D01*
X104952000Y-110074916D01*
X104952000Y-109735116D01*
X105638227Y-109735116D01*
X106324453Y-109735116D01*
X106292156Y-109395317D01*
X106259859Y-109055518D01*
X106918263Y-109055518D01*
X107576667Y-109055518D01*
X107576667Y-108715718D01*
X107576667Y-108375919D01*
X108254000Y-108375919D01*
X108931333Y-108375919D01*
X108931333Y-108036120D01*
X108931333Y-107696320D01*
X111302000Y-107696320D01*
X113672667Y-107696320D01*
X113672667Y-108032546D01*
X113672667Y-108368772D01*
X114328833Y-108393583D01*
X114547542Y-108404227D01*
X114811219Y-108431922D01*
X114951207Y-108476923D01*
X114996401Y-108545819D01*
X115004521Y-108650888D01*
X115017567Y-108864381D01*
X115021948Y-108915485D01*
X115054369Y-108992793D01*
X115147854Y-109034770D01*
X115338482Y-109052113D01*
X115662333Y-109055518D01*
X116297333Y-109055518D01*
X116297333Y-109404240D01*
X116297333Y-109752962D01*
X116636000Y-109720557D01*
X116974667Y-109688152D01*
X116974667Y-110057942D01*
X116974667Y-110427732D01*
X117292167Y-110399986D01*
X117609667Y-110372240D01*
X117636211Y-110743739D01*
X117662755Y-111115237D01*
X117996044Y-111070384D01*
X118329333Y-111025531D01*
X118329333Y-111357247D01*
X118329829Y-111443428D01*
X118350492Y-111612870D01*
X118434350Y-111678198D01*
X118625667Y-111688963D01*
X118922000Y-111688963D01*
X118922000Y-111056967D01*
X118922000Y-110424971D01*
X118604500Y-110398606D01*
X118555945Y-110394382D01*
X118373052Y-110360272D01*
X118300143Y-110270849D01*
X118287000Y-110074916D01*
X118286866Y-110037421D01*
X118267654Y-109859396D01*
X118180334Y-109781533D01*
X117974324Y-109751514D01*
X117943624Y-109748869D01*
X117751430Y-109714072D01*
X117667171Y-109620146D01*
X117635657Y-109411715D01*
X117633020Y-109380913D01*
X117598339Y-109188076D01*
X117504727Y-109103535D01*
X117296990Y-109071916D01*
X117266291Y-109069270D01*
X117074096Y-109034473D01*
X116989838Y-108940548D01*
X116958324Y-108732116D01*
X116955114Y-108693526D01*
X116931747Y-108530911D01*
X116868567Y-108444897D01*
X116722535Y-108406053D01*
X116450611Y-108384949D01*
X116424126Y-108381006D01*
X116327528Y-108289005D01*
X116281278Y-108057357D01*
X116277160Y-108009669D01*
X116243141Y-107825492D01*
X116153990Y-107751597D01*
X115958667Y-107737355D01*
X115910618Y-107736856D01*
X115739705Y-107714431D01*
X115660059Y-107622283D01*
X115620000Y-107410540D01*
X115577667Y-107085166D01*
X114942667Y-107071546D01*
X114307667Y-107057927D01*
X114281596Y-106743485D01*
X114255526Y-106429042D01*
X113604263Y-106404320D01*
X112953000Y-106379598D01*
X112973616Y-106061036D01*
X112994232Y-105742474D01*
X111294962Y-105742474D01*
X109595693Y-105742474D01*
X109623264Y-106061036D01*
X109650834Y-106379598D01*
X108946198Y-106404372D01*
X108241562Y-106429146D01*
X108268948Y-106744171D01*
X108296333Y-107059197D01*
X107645071Y-107083919D01*
X106993808Y-107108641D01*
X106967737Y-107413750D01*
X106941667Y-107718858D01*
X106306667Y-107728827D01*
X105671667Y-107738795D01*
X105645677Y-108052518D01*
X105643040Y-108083320D01*
X105608359Y-108276157D01*
X105514747Y-108360697D01*
X105307010Y-108392317D01*
X105267305Y-108395775D01*
X105080803Y-108431118D01*
X104999049Y-108526548D01*
X104968056Y-108736956D01*
X104941778Y-109055518D01*
X104273117Y-109055518D01*
X103604456Y-109055518D01*
X103579728Y-108397157D01*
X103555000Y-107738795D01*
X103228707Y-107711904D01*
X103215007Y-107710758D01*
X103012169Y-107680784D01*
X102934723Y-107616195D01*
X102940753Y-107483784D01*
X102942218Y-107475961D01*
X102943749Y-107255275D01*
X102829929Y-107131588D01*
X102576521Y-107077892D01*
X102457606Y-107068257D01*
X102364201Y-107044054D01*
X102308650Y-106975934D01*
X102279506Y-106832450D01*
X102265323Y-106582151D01*
X102254653Y-106193589D01*
X102242667Y-105752730D01*
X101930992Y-105726365D01*
X101619317Y-105699999D01*
X101636300Y-105147825D01*
X101636420Y-104873941D01*
X101619063Y-104628259D01*
X101587401Y-104496375D01*
X101581253Y-104488404D01*
X101445630Y-104414662D01*
X101229812Y-104368950D01*
X101034565Y-104334635D01*
X100952442Y-104245152D01*
X100934219Y-104043478D01*
X100930333Y-103746153D01*
X100279071Y-103721431D01*
X99627808Y-103696709D01*
X99601737Y-103381632D01*
X99575667Y-103066555D01*
X98284500Y-103043104D01*
X98137165Y-103040338D01*
X97676445Y-103032390D01*
X97354447Y-103035030D01*
X97146937Y-103056911D01*
X97029681Y-103106684D01*
X96978445Y-103193003D01*
X96968995Y-103324518D01*
X96977098Y-103509882D01*
X96976189Y-103573130D01*
X96948584Y-103633442D01*
X96864890Y-103672395D01*
X96696804Y-103696104D01*
X96416021Y-103710686D01*
X95994237Y-103722257D01*
X95003667Y-103746153D01*
X94977389Y-104064715D01*
X94951112Y-104383277D01*
X93155889Y-104383277D01*
X92933606Y-104377922D01*
X92910303Y-103046923D01*
X92887000Y-101715923D01*
X92590667Y-101711640D01*
X92556302Y-101711026D01*
X92377185Y-101689278D01*
X92298594Y-101600642D01*
X92268343Y-101393635D01*
X92265707Y-101362833D01*
X92231026Y-101169996D01*
X92137413Y-101085455D01*
X91929677Y-101053836D01*
X91896412Y-101050960D01*
X91705839Y-101016013D01*
X91622295Y-100921667D01*
X91590930Y-100712681D01*
X91564859Y-100397604D01*
X90913596Y-100372882D01*
X90695555Y-100362229D01*
X90434558Y-100334624D01*
X90297056Y-100289688D01*
X90254063Y-100220735D01*
X90251698Y-100183148D01*
X90234940Y-99937254D01*
X90197495Y-99795571D01*
X90102270Y-99729624D01*
X89912173Y-99710937D01*
X89590111Y-99711036D01*
X88960222Y-99711036D01*
X88933944Y-99392474D01*
X88907667Y-99073912D01*
X86939167Y-99051109D01*
X84970667Y-99028306D01*
X84970667Y-99369671D01*
X84970667Y-99711036D01*
X84293333Y-99711036D01*
X83616000Y-99711036D01*
X82938667Y-99711036D01*
X82938667Y-99371237D01*
X82938667Y-99031437D01*
X83277333Y-99031437D01*
X83616000Y-99031437D01*
X83616000Y-98691638D01*
X83616000Y-98351839D01*
X83954667Y-98351839D01*
X84293333Y-98351839D01*
X84293333Y-98012039D01*
X84293333Y-97672240D01*
X84632000Y-97672240D01*
X84970667Y-97672240D01*
X84970667Y-97332441D01*
X84970667Y-96992641D01*
X84632000Y-96992641D01*
X84293333Y-96992641D01*
X84293333Y-96652842D01*
X84293333Y-96313043D01*
X83954667Y-96313043D01*
X83616000Y-96313043D01*
X83616000Y-94996320D01*
X83616000Y-93679598D01*
X83277333Y-93679598D01*
X82938667Y-93679598D01*
X82938667Y-93339799D01*
X82938667Y-92999999D01*
X82600000Y-92999999D01*
X82261333Y-92999999D01*
X82261333Y-92660200D01*
X82261333Y-92320401D01*
X84293333Y-92320401D01*
X84293333Y-93679598D01*
X84293333Y-95038795D01*
X84632000Y-95038795D01*
X84747981Y-95039594D01*
X84904283Y-95063913D01*
X84962218Y-95158546D01*
X84970667Y-95371516D01*
X84970667Y-95704236D01*
X86283000Y-95704236D01*
X87595333Y-95704236D01*
X87595333Y-95371516D01*
X87596147Y-95257571D01*
X87620900Y-95104014D01*
X87717225Y-95047096D01*
X87934000Y-95038795D01*
X88272667Y-95038795D01*
X88272667Y-93679598D01*
X88272667Y-92320401D01*
X87934000Y-92320401D01*
X87595333Y-92320401D01*
X87595333Y-91980601D01*
X87595333Y-91640802D01*
X86283000Y-91640802D01*
X84970667Y-91640802D01*
X84970667Y-91980601D01*
X84970667Y-92320401D01*
X84632000Y-92320401D01*
X84293333Y-92320401D01*
X82261333Y-92320401D01*
X81296725Y-92320401D01*
X80866114Y-92317455D01*
X80563557Y-92300362D01*
X80376093Y-92256906D01*
X80276231Y-92174875D01*
X80236476Y-92042053D01*
X80229333Y-91846229D01*
X80227103Y-91778380D01*
X80198165Y-91700896D01*
X80106816Y-91659825D01*
X79917418Y-91643636D01*
X79594333Y-91640802D01*
X78959333Y-91640802D01*
X78959333Y-91301003D01*
X78959333Y-90961203D01*
X78620667Y-90961203D01*
X78520734Y-90960539D01*
X78355558Y-90938845D01*
X78292253Y-90854245D01*
X78282000Y-90663879D01*
X78282000Y-90366555D01*
X79589223Y-90366555D01*
X80896445Y-90366555D01*
X80922723Y-90047993D01*
X80949000Y-89729431D01*
X81605167Y-89704620D01*
X82261333Y-89679809D01*
X82261333Y-89343583D01*
X82262148Y-89227086D01*
X82286902Y-89072661D01*
X82383226Y-89015595D01*
X82600000Y-89007357D01*
X82938667Y-89007357D01*
X82938667Y-87653288D01*
X82938667Y-86299219D01*
X82621167Y-86272853D01*
X82303667Y-86246488D01*
X82278939Y-85588126D01*
X82254211Y-84929765D01*
X81919105Y-84929765D01*
X81802996Y-84928948D01*
X81649086Y-84904111D01*
X81592210Y-84807466D01*
X81584000Y-84589966D01*
X81584000Y-84250167D01*
X81245333Y-84250167D01*
X81145401Y-84249502D01*
X80980224Y-84227808D01*
X80916920Y-84143209D01*
X80906667Y-83952842D01*
X80894989Y-83766002D01*
X80830701Y-83674240D01*
X80673833Y-83654217D01*
X80459851Y-83626721D01*
X80284105Y-83552142D01*
X80222102Y-83454883D01*
X80236039Y-83329850D01*
X80225614Y-83110240D01*
X80133118Y-83003754D01*
X79938111Y-82975919D01*
X79896592Y-82975735D01*
X79725503Y-82955521D01*
X79650238Y-82866180D01*
X79620611Y-82657357D01*
X79619404Y-82642980D01*
X79584978Y-82437475D01*
X79495048Y-82341175D01*
X79298000Y-82296320D01*
X79284627Y-82294381D01*
X79094251Y-82248308D01*
X79008377Y-82147863D01*
X78975389Y-81935284D01*
X78972033Y-81896157D01*
X78938670Y-81707391D01*
X78853205Y-81631008D01*
X78666948Y-81616722D01*
X78643406Y-81616485D01*
X78426154Y-81570634D01*
X78313921Y-81424478D01*
X78282000Y-81147932D01*
X78275056Y-81063960D01*
X78201053Y-80963418D01*
X78006833Y-80921268D01*
X77852435Y-80896621D01*
X77753111Y-80818483D01*
X77731667Y-80639799D01*
X77731667Y-80384949D01*
X79880213Y-80362230D01*
X80440160Y-80356964D01*
X81017034Y-80355226D01*
X81457385Y-80361737D01*
X81779585Y-80379374D01*
X82002006Y-80411013D01*
X82143020Y-80459534D01*
X82220997Y-80527812D01*
X82254311Y-80618725D01*
X82261333Y-80735150D01*
X82261366Y-80743920D01*
X82284150Y-80870004D01*
X82381309Y-80925031D01*
X82600000Y-80937123D01*
X82938667Y-80937123D01*
X82938667Y-80389963D01*
X82942160Y-80257524D01*
X83616000Y-80257524D01*
X83616000Y-82933444D01*
X83616000Y-85609364D01*
X83954667Y-85609364D01*
X84293333Y-85609364D01*
X84293333Y-87945484D01*
X84293333Y-90281605D01*
X85944333Y-90281605D01*
X87595333Y-90281605D01*
X87595333Y-89007357D01*
X89627333Y-89007357D01*
X89627333Y-91003678D01*
X89627333Y-92320401D01*
X89627333Y-92999999D01*
X89966000Y-92999999D01*
X90304667Y-92999999D01*
X90304667Y-93679598D01*
X90304667Y-94359197D01*
X90637435Y-94359197D01*
X90684550Y-94359376D01*
X90875269Y-94375474D01*
X90952946Y-94441928D01*
X90965413Y-94592809D01*
X90965342Y-94798850D01*
X90996056Y-94960430D01*
X91088925Y-95026273D01*
X91273223Y-95038795D01*
X91314742Y-95038979D01*
X91485831Y-95059193D01*
X91561095Y-95148534D01*
X91590723Y-95357357D01*
X91594932Y-95406075D01*
X91628928Y-95589580D01*
X91718053Y-95662732D01*
X91913333Y-95675919D01*
X91952971Y-95676072D01*
X92128963Y-95695627D01*
X92205942Y-95783719D01*
X92235737Y-95990996D01*
X92261808Y-96306073D01*
X92913071Y-96330796D01*
X93564333Y-96355518D01*
X93590611Y-96674080D01*
X93616889Y-96992641D01*
X96278778Y-96992641D01*
X98940667Y-96992641D01*
X98940667Y-96652842D01*
X98940667Y-96313043D01*
X99618000Y-96313043D01*
X100295333Y-96313043D01*
X100295333Y-95336120D01*
X100295333Y-95038795D01*
X100972667Y-95038795D01*
X100972667Y-96015718D01*
X100972667Y-96992641D01*
X101946333Y-96992641D01*
X102920000Y-96992641D01*
X102920000Y-97332441D01*
X102920806Y-97450177D01*
X102945300Y-97606242D01*
X103040610Y-97663915D01*
X103255105Y-97672240D01*
X103590211Y-97672240D01*
X103614939Y-97013879D01*
X103639667Y-96355518D01*
X103957222Y-96355518D01*
X104274778Y-96355518D01*
X104274722Y-95357357D01*
X104274667Y-94359197D01*
X104613333Y-94359197D01*
X104952000Y-94359197D01*
X104952000Y-93679598D01*
X104952000Y-92999999D01*
X105290667Y-92999999D01*
X105629333Y-92999999D01*
X105629333Y-91980601D01*
X105629333Y-90961203D01*
X105968000Y-90961203D01*
X106306667Y-90961203D01*
X106306667Y-92320401D01*
X106306667Y-93679598D01*
X106645333Y-93679598D01*
X106984000Y-93679598D01*
X106984000Y-96012145D01*
X106984000Y-98344692D01*
X107638630Y-98369503D01*
X108293259Y-98394314D01*
X108294796Y-98691638D01*
X108295223Y-98736095D01*
X108316288Y-98909621D01*
X108405667Y-98985629D01*
X108613833Y-99015328D01*
X108931333Y-99041694D01*
X108931333Y-98356967D01*
X108931333Y-97672240D01*
X109264889Y-97672240D01*
X109354122Y-97671665D01*
X109524629Y-97649173D01*
X109597088Y-97558883D01*
X109624723Y-97353678D01*
X109628467Y-97310271D01*
X109663794Y-97121913D01*
X109758883Y-97039722D01*
X109968500Y-97008751D01*
X110286000Y-96982385D01*
X110286000Y-96350390D01*
X110289597Y-96052394D01*
X110318032Y-95831544D01*
X110397591Y-95721247D01*
X110554545Y-95689408D01*
X110815167Y-95703933D01*
X110837127Y-95704799D01*
X110903228Y-95678539D01*
X110941458Y-95580369D01*
X110959074Y-95377663D01*
X110963333Y-95037794D01*
X110963333Y-94359197D01*
X111302000Y-94359197D01*
X111640667Y-94359197D01*
X111640667Y-93679598D01*
X111640667Y-92999999D01*
X111979333Y-92999999D01*
X112318000Y-92999999D01*
X112318000Y-92660200D01*
X112318000Y-92320401D01*
X112656667Y-92320401D01*
X112995333Y-92320401D01*
X112995333Y-94656521D01*
X112995333Y-96992641D01*
X112656667Y-96992641D01*
X112318000Y-96992641D01*
X112318000Y-98351839D01*
X112318000Y-99711036D01*
X112943942Y-99711036D01*
X113188783Y-99714271D01*
X113449617Y-99741674D01*
X113595372Y-99815088D01*
X113658802Y-99955828D01*
X113672667Y-100185208D01*
X113674897Y-100253057D01*
X113703835Y-100330541D01*
X113795184Y-100371612D01*
X113984582Y-100387801D01*
X114307667Y-100390635D01*
X114942667Y-100390635D01*
X114942667Y-99371237D01*
X114942667Y-98351839D01*
X115281333Y-98351839D01*
X115620000Y-98351839D01*
X115620000Y-94312998D01*
X115620004Y-94243127D01*
X115620995Y-93284235D01*
X115621798Y-93066786D01*
X116309118Y-93066786D01*
X116310291Y-93779484D01*
X116313297Y-94635938D01*
X116317781Y-95649220D01*
X116318457Y-95792875D01*
X116323697Y-96794904D01*
X116329379Y-97641416D01*
X116335903Y-98345124D01*
X116343672Y-98918744D01*
X116353088Y-99374989D01*
X116364552Y-99726574D01*
X116378467Y-99986214D01*
X116395234Y-100166621D01*
X116415255Y-100280512D01*
X116438932Y-100340599D01*
X116466667Y-100359598D01*
X116571386Y-100367746D01*
X116784167Y-100380836D01*
X116905755Y-100409636D01*
X116961704Y-100512163D01*
X116974667Y-100735981D01*
X116974667Y-101081327D01*
X117630833Y-101061640D01*
X118287000Y-101041953D01*
X118313278Y-101353418D01*
X118339555Y-101664882D01*
X119308111Y-101664882D01*
X120276667Y-101664882D01*
X120276667Y-102004682D01*
X120276667Y-102344481D01*
X122308667Y-102344481D01*
X124340667Y-102344481D01*
X124340667Y-102000958D01*
X124340992Y-101964991D01*
X124370518Y-101739304D01*
X124446500Y-101671223D01*
X124552108Y-101676368D01*
X124785726Y-101678170D01*
X125081500Y-101674947D01*
X125610667Y-101664882D01*
X125610667Y-101367558D01*
X125610667Y-101070233D01*
X126288000Y-101070233D01*
X126965333Y-101070233D01*
X126965333Y-100730434D01*
X126965333Y-100390635D01*
X127304000Y-100390635D01*
X127642667Y-100390635D01*
X127642667Y-100050835D01*
X127642667Y-99711036D01*
X127981333Y-99711036D01*
X128320000Y-99711036D01*
X128320000Y-99031437D01*
X128320000Y-98351839D01*
X128658667Y-98351839D01*
X128997333Y-98351839D01*
X128997333Y-97332441D01*
X128997333Y-96313043D01*
X129336000Y-96313043D01*
X129674667Y-96313043D01*
X129674667Y-94316722D01*
X129674667Y-92320401D01*
X129338687Y-92320401D01*
X129002707Y-92320401D01*
X128978854Y-91322240D01*
X128955000Y-90324080D01*
X128637500Y-90297714D01*
X128592251Y-90293788D01*
X128407542Y-90259908D01*
X128333521Y-90171815D01*
X128320000Y-89979152D01*
X128319259Y-89895296D01*
X128294565Y-89751482D01*
X128198190Y-89696070D01*
X127981333Y-89686956D01*
X127642667Y-89686956D01*
X127642667Y-89347157D01*
X127642667Y-89007357D01*
X127304000Y-89007357D01*
X126965333Y-89007357D01*
X126965333Y-88667558D01*
X126965333Y-88327759D01*
X126626667Y-88327759D01*
X126288000Y-88327759D01*
X126288000Y-87987959D01*
X126288000Y-87648160D01*
X125949333Y-87648160D01*
X125610667Y-87648160D01*
X125610667Y-87308361D01*
X125610667Y-86968561D01*
X124298333Y-86968561D01*
X122986000Y-86968561D01*
X122986000Y-86628762D01*
X122986000Y-86288963D01*
X121970000Y-86288963D01*
X120954000Y-86288963D01*
X120954000Y-86628762D01*
X120954000Y-86968561D01*
X119980333Y-86968561D01*
X119752411Y-86968922D01*
X119407225Y-86973694D01*
X119187966Y-86988034D01*
X119065666Y-87016942D01*
X119011361Y-87065417D01*
X118996083Y-87138461D01*
X118987188Y-87241945D01*
X118964333Y-87393310D01*
X118962816Y-87399506D01*
X118932583Y-87563210D01*
X118930790Y-87568529D01*
X118829713Y-87609398D01*
X118602311Y-87637627D01*
X118287000Y-87648160D01*
X117652000Y-87648160D01*
X117652000Y-87987959D01*
X117652000Y-88327759D01*
X117313333Y-88327759D01*
X116974667Y-88327759D01*
X116974667Y-89644481D01*
X116974775Y-89825615D01*
X116973786Y-90288470D01*
X116963528Y-90612331D01*
X116934619Y-90820590D01*
X116877674Y-90936644D01*
X116783308Y-90983888D01*
X116642139Y-90985716D01*
X116444781Y-90965524D01*
X116439500Y-90965115D01*
X116408233Y-90972124D01*
X116381987Y-91005266D01*
X116360409Y-91077609D01*
X116343145Y-91202222D01*
X116329839Y-91392177D01*
X116320138Y-91660541D01*
X116313687Y-92020384D01*
X116310132Y-92484776D01*
X116309118Y-93066786D01*
X115621798Y-93066786D01*
X115623956Y-92482674D01*
X115629196Y-91826670D01*
X115637025Y-91304448D01*
X115647752Y-90904232D01*
X115661687Y-90614249D01*
X115679139Y-90422723D01*
X115700418Y-90317881D01*
X115725833Y-90287946D01*
X115851961Y-90294495D01*
X116064500Y-90291670D01*
X116297333Y-90281605D01*
X116297333Y-88964882D01*
X116297333Y-87648160D01*
X115620000Y-87648160D01*
X114942667Y-87648160D01*
X114942667Y-87308361D01*
X114942667Y-86968561D01*
X113974111Y-86968561D01*
X113005555Y-86968561D01*
X112979278Y-87287123D01*
X112975722Y-87328415D01*
X112940563Y-87517926D01*
X112846382Y-87600766D01*
X112638973Y-87631843D01*
X112324946Y-87658000D01*
X112300307Y-88311441D01*
X112275667Y-88964882D01*
X111958167Y-88991248D01*
X111640667Y-89017613D01*
X111640667Y-89649609D01*
X111640667Y-90281605D01*
X111302000Y-90281605D01*
X110963333Y-90281605D01*
X110963333Y-90961203D01*
X110963333Y-91640802D01*
X110624667Y-91640802D01*
X110286000Y-91640802D01*
X110286000Y-91980601D01*
X110286000Y-92320401D01*
X109947333Y-92320401D01*
X109608667Y-92320401D01*
X109608667Y-92999999D01*
X109608667Y-93679598D01*
X109270000Y-93679598D01*
X108931333Y-93679598D01*
X108931333Y-91008806D01*
X108931333Y-88338015D01*
X108613833Y-88311649D01*
X108296333Y-88285284D01*
X108286623Y-86968561D01*
X108276912Y-85651839D01*
X107973946Y-85625762D01*
X107950831Y-85623718D01*
X107760910Y-85588791D01*
X107676822Y-85494653D01*
X107644990Y-85285963D01*
X107619000Y-84972240D01*
X106285500Y-84948846D01*
X104952000Y-84925451D01*
X104952000Y-85607207D01*
X104952000Y-86288963D01*
X104613333Y-86288963D01*
X104274667Y-86288963D01*
X104274667Y-86968561D01*
X104274667Y-87308361D01*
X104274667Y-88327759D01*
X103936000Y-88327759D01*
X103597333Y-88327759D01*
X103597333Y-89299554D01*
X103597333Y-90271349D01*
X103279833Y-90297714D01*
X102962333Y-90324080D01*
X102937694Y-90977521D01*
X102913054Y-91630961D01*
X102599027Y-91657119D01*
X102285000Y-91683277D01*
X102285000Y-92660200D01*
X102285000Y-93637123D01*
X101967500Y-93663489D01*
X101650000Y-93689854D01*
X101650000Y-94364325D01*
X101650000Y-95038795D01*
X101311333Y-95038795D01*
X100972667Y-95038795D01*
X100295333Y-95038795D01*
X100295333Y-94359197D01*
X100634000Y-94359197D01*
X100972667Y-94359197D01*
X100972667Y-93679598D01*
X100972667Y-92999999D01*
X101319814Y-92999999D01*
X101666961Y-92999999D01*
X101637314Y-92001839D01*
X101607667Y-91003678D01*
X101921694Y-90977521D01*
X102235721Y-90951363D01*
X102260360Y-90297922D01*
X102285000Y-89644481D01*
X102581333Y-89644481D01*
X102877667Y-89644481D01*
X102900983Y-88306521D01*
X102924300Y-86968561D01*
X102629378Y-86968561D01*
X102334456Y-86968561D01*
X102309728Y-86310200D01*
X102285000Y-85651839D01*
X101972324Y-85625762D01*
X101941624Y-85623116D01*
X101749430Y-85588320D01*
X101665171Y-85494394D01*
X101633657Y-85285963D01*
X101631020Y-85255161D01*
X101596339Y-85062323D01*
X101502727Y-84977783D01*
X101294990Y-84946163D01*
X101273045Y-84944288D01*
X101076038Y-84910061D01*
X100988846Y-84819300D01*
X100956324Y-84618682D01*
X100930333Y-84317278D01*
X100274167Y-84313453D01*
X99618000Y-84309628D01*
X99618000Y-83982573D01*
X99618000Y-83655518D01*
X98940667Y-83655518D01*
X98263333Y-83655518D01*
X98263333Y-83315718D01*
X98263333Y-82975919D01*
X96617444Y-82975919D01*
X94971555Y-82975919D01*
X94945278Y-83294481D01*
X94919000Y-83613043D01*
X93924167Y-83636976D01*
X92929333Y-83660910D01*
X92929333Y-83976850D01*
X92929333Y-84292791D01*
X92273167Y-84304273D01*
X91617000Y-84315754D01*
X91591010Y-84617920D01*
X91589090Y-84639679D01*
X91554256Y-84829818D01*
X91460390Y-84914163D01*
X91252343Y-84946163D01*
X91196064Y-84951109D01*
X91020443Y-84986050D01*
X90951567Y-85081012D01*
X90940874Y-85269565D01*
X90939667Y-85290858D01*
X90939330Y-85364102D01*
X90918847Y-85534143D01*
X90873991Y-85566889D01*
X90829930Y-85599055D01*
X90622167Y-85609420D01*
X90518927Y-85610206D01*
X90369351Y-85635008D01*
X90313202Y-85731653D01*
X90304667Y-85949163D01*
X90305329Y-86049430D01*
X90326951Y-86215159D01*
X90411268Y-86278675D01*
X90601000Y-86288963D01*
X90620116Y-86289142D01*
X90823920Y-86320826D01*
X90910229Y-86395150D01*
X90913977Y-86423670D01*
X90942797Y-86586287D01*
X90953047Y-86642791D01*
X90972234Y-86819899D01*
X90972283Y-86820632D01*
X91000245Y-86897259D01*
X91094065Y-86942164D01*
X91288173Y-86963285D01*
X91617000Y-86968561D01*
X92252000Y-86968561D01*
X92252000Y-87308361D01*
X92252000Y-87648160D01*
X92929333Y-87648160D01*
X93606667Y-87648160D01*
X93606667Y-87308361D01*
X93606667Y-86968561D01*
X93945333Y-86968561D01*
X94284000Y-86968561D01*
X94284000Y-86628762D01*
X94284000Y-86288963D01*
X96273667Y-86288963D01*
X98263333Y-86288963D01*
X98263333Y-86628762D01*
X98263333Y-86968561D01*
X98602000Y-86968561D01*
X98940667Y-86968561D01*
X98940667Y-87308361D01*
X98940667Y-87648160D01*
X99279333Y-87648160D01*
X99618000Y-87648160D01*
X99618000Y-89984280D01*
X99618000Y-92320401D01*
X99279333Y-92320401D01*
X98940667Y-92320401D01*
X98940667Y-92999999D01*
X98940667Y-93679598D01*
X98602000Y-93679598D01*
X98263333Y-93679598D01*
X98263333Y-94019397D01*
X98263333Y-94359197D01*
X96273667Y-94359197D01*
X94284000Y-94359197D01*
X94284000Y-94019397D01*
X94284000Y-93679598D01*
X93945333Y-93679598D01*
X93606667Y-93679598D01*
X93606667Y-93339799D01*
X93606667Y-92999999D01*
X93268000Y-92999999D01*
X92929333Y-92999999D01*
X92929333Y-92320401D01*
X92929333Y-91640802D01*
X94622667Y-91640802D01*
X96316000Y-91640802D01*
X96316000Y-90324080D01*
X96316000Y-89007357D01*
X92971667Y-89007357D01*
X89627333Y-89007357D01*
X87595333Y-89007357D01*
X87595333Y-85566889D01*
X90050667Y-85566889D01*
X90093000Y-85609364D01*
X90135333Y-85566889D01*
X90093000Y-85524414D01*
X90050667Y-85566889D01*
X87595333Y-85566889D01*
X87595333Y-85269565D01*
X87595333Y-80257524D01*
X85605667Y-80257524D01*
X83616000Y-80257524D01*
X82942160Y-80257524D01*
X82944205Y-80179962D01*
X82979656Y-79905609D01*
X83044500Y-79776283D01*
X83050847Y-79773815D01*
X83180022Y-79760718D01*
X83447263Y-79750251D01*
X83826956Y-79742347D01*
X84293484Y-79736939D01*
X84821232Y-79733961D01*
X85384583Y-79733346D01*
X85957922Y-79735027D01*
X86515632Y-79738939D01*
X87032099Y-79745014D01*
X87481705Y-79753185D01*
X87838836Y-79763387D01*
X88077875Y-79775553D01*
X88173206Y-79789615D01*
X88195457Y-79878413D01*
X88223854Y-80091450D01*
X88251294Y-80380191D01*
X88295850Y-80937123D01*
X88961592Y-80937123D01*
X89627333Y-80937123D01*
X89627333Y-80648887D01*
X89627895Y-80611841D01*
X89675838Y-80397965D01*
X89822897Y-80288376D01*
X90099925Y-80257524D01*
X90304667Y-80257524D01*
X90304667Y-78983277D01*
X93606667Y-78983277D01*
X93606667Y-79275473D01*
X93606850Y-79317132D01*
X93626997Y-79488793D01*
X93716040Y-79564309D01*
X93924167Y-79594035D01*
X93964484Y-79597528D01*
X94153819Y-79632739D01*
X94236641Y-79726882D01*
X94267657Y-79934123D01*
X94270294Y-79964925D01*
X94304974Y-80157762D01*
X94398587Y-80242303D01*
X94606324Y-80273922D01*
X94646029Y-80277381D01*
X94832530Y-80312723D01*
X94914285Y-80408153D01*
X94945278Y-80618561D01*
X94971555Y-80937123D01*
X95639794Y-80937123D01*
X95873288Y-80938065D01*
X96115040Y-80947697D01*
X96243928Y-80975999D01*
X96294185Y-81032884D01*
X96300044Y-81128260D01*
X96297637Y-81258490D01*
X96304028Y-81468060D01*
X96304966Y-81477145D01*
X96327952Y-81531311D01*
X96397136Y-81569430D01*
X96537142Y-81594267D01*
X96772594Y-81608584D01*
X97128116Y-81615148D01*
X97628333Y-81616722D01*
X98940667Y-81616722D01*
X98940667Y-81276922D01*
X98941468Y-81159788D01*
X98965849Y-81003389D01*
X99060719Y-80945515D01*
X99274223Y-80937123D01*
X99363455Y-80936548D01*
X99533962Y-80914056D01*
X99606422Y-80823766D01*
X99634056Y-80618561D01*
X99638789Y-80564405D01*
X99674821Y-80382861D01*
X99771784Y-80303641D01*
X99983849Y-80273274D01*
X100068121Y-80265859D01*
X100232365Y-80231031D01*
X100288056Y-80137641D01*
X100280827Y-79933475D01*
X100273277Y-79842863D01*
X100276632Y-79705536D01*
X100337876Y-79634174D01*
X100494044Y-79603179D01*
X100782167Y-79586956D01*
X100839300Y-79581992D01*
X100895071Y-79556656D01*
X100932618Y-79486850D01*
X100955546Y-79347488D01*
X100967461Y-79113483D01*
X100971966Y-78759750D01*
X100972667Y-78261203D01*
X100972667Y-76944481D01*
X101311333Y-76944481D01*
X101428677Y-76945289D01*
X101584222Y-76969865D01*
X101641703Y-77065495D01*
X101650000Y-77280707D01*
X101650000Y-77616933D01*
X102303496Y-77641744D01*
X102956992Y-77666555D01*
X102962121Y-77963879D01*
X102962917Y-78001708D01*
X102985542Y-78179259D01*
X103074910Y-78257268D01*
X103282292Y-78287569D01*
X103322809Y-78291096D01*
X103508902Y-78324881D01*
X103583621Y-78412915D01*
X103597333Y-78606131D01*
X103596915Y-78712953D01*
X103610452Y-78814317D01*
X103668655Y-78873293D01*
X103802682Y-78901386D01*
X104043689Y-78910101D01*
X104422833Y-78910943D01*
X104952000Y-78911797D01*
X104952000Y-79244861D01*
X104952000Y-79577926D01*
X106179667Y-79577926D01*
X106360688Y-79578156D01*
X106780730Y-79580586D01*
X107127005Y-79585247D01*
X107367658Y-79591614D01*
X107470833Y-79599163D01*
X107480016Y-79599213D01*
X107528170Y-79513608D01*
X107562388Y-79323819D01*
X107565481Y-79295310D01*
X107613359Y-79086372D01*
X107683293Y-78969660D01*
X107796733Y-78942717D01*
X108032511Y-78923160D01*
X108332572Y-78917839D01*
X108889000Y-78923594D01*
X108915278Y-78613636D01*
X108922512Y-78535034D01*
X108959499Y-78375942D01*
X109059293Y-78314104D01*
X109275111Y-78303678D01*
X109390093Y-78302862D01*
X109543619Y-78278025D01*
X109600429Y-78181379D01*
X109608667Y-77963879D01*
X109608667Y-77624080D01*
X108973667Y-77624080D01*
X108338667Y-77624080D01*
X108338667Y-77963879D01*
X108338667Y-78303678D01*
X106306667Y-78303678D01*
X104274667Y-78303678D01*
X104274667Y-77963879D01*
X104274667Y-77624080D01*
X103597333Y-77624080D01*
X102920000Y-77624080D01*
X102920000Y-77284280D01*
X102920000Y-77149908D01*
X109608667Y-77149908D01*
X109618708Y-77297781D01*
X109660059Y-77489707D01*
X109759165Y-77583381D01*
X109998725Y-77624080D01*
X110079300Y-77623351D01*
X110221721Y-77598588D01*
X110276827Y-77501880D01*
X110286000Y-77284280D01*
X110286000Y-76944481D01*
X109947333Y-76944481D01*
X109927468Y-76944516D01*
X109718810Y-76958468D01*
X109628316Y-77017364D01*
X109608667Y-77149908D01*
X102920000Y-77149908D01*
X102920000Y-76944481D01*
X102581333Y-76944481D01*
X102242667Y-76944481D01*
X102242667Y-76604682D01*
X102242667Y-76264882D01*
X101904000Y-76264882D01*
X101565333Y-76264882D01*
X101565333Y-75925083D01*
X101565333Y-75585284D01*
X101221444Y-75585284D01*
X100877555Y-75585284D01*
X100925075Y-75285279D01*
X100934927Y-75205383D01*
X100906442Y-74997009D01*
X100767715Y-74912032D01*
X100506811Y-74940617D01*
X100295333Y-74993872D01*
X100295333Y-76988574D01*
X100295333Y-78595094D01*
X100295333Y-78983277D01*
X99956667Y-78983277D01*
X99618000Y-78983277D01*
X99618000Y-79323076D01*
X99618000Y-79662876D01*
X98946184Y-79662876D01*
X98274367Y-79662876D01*
X98290017Y-79981437D01*
X98305667Y-80299999D01*
X97289667Y-80299999D01*
X96273667Y-80299999D01*
X96247596Y-79984922D01*
X96221526Y-79669845D01*
X95570328Y-79645123D01*
X94919131Y-79620401D01*
X94946719Y-79301839D01*
X94974307Y-78983277D01*
X94290487Y-78983277D01*
X93606667Y-78983277D01*
X90304667Y-78983277D01*
X90304667Y-78431103D01*
X91659333Y-78431103D01*
X91701667Y-78473578D01*
X91744000Y-78431103D01*
X91701667Y-78388628D01*
X91659333Y-78431103D01*
X90304667Y-78431103D01*
X90304667Y-78261203D01*
X90304121Y-77679342D01*
X90301303Y-77183377D01*
X90296932Y-76944481D01*
X90982000Y-76944481D01*
X90982000Y-77574357D01*
X90982000Y-78204233D01*
X91612345Y-78263498D01*
X91862626Y-78288022D01*
X92083518Y-78320810D01*
X92200092Y-78369688D01*
X92236420Y-78431103D01*
X92249405Y-78453054D01*
X92268512Y-78589308D01*
X92290433Y-78733229D01*
X92351175Y-78822422D01*
X92493069Y-78868257D01*
X92760000Y-78898327D01*
X93098257Y-78923862D01*
X93364920Y-78920798D01*
X93518883Y-78872023D01*
X93589636Y-78766976D01*
X93606667Y-78595094D01*
X93605929Y-78511831D01*
X93581237Y-78368198D01*
X93484860Y-78312810D01*
X93268000Y-78303678D01*
X92929333Y-78303678D01*
X92929333Y-77963879D01*
X92929333Y-77624080D01*
X92252000Y-77624080D01*
X91574667Y-77624080D01*
X91574667Y-77284280D01*
X91574004Y-77184014D01*
X91552383Y-77018285D01*
X91468065Y-76954768D01*
X91278333Y-76944481D01*
X90982000Y-76944481D01*
X90296932Y-76944481D01*
X90294635Y-76818906D01*
X90282543Y-76565813D01*
X90263453Y-76403981D01*
X90235792Y-76313293D01*
X90197984Y-76273632D01*
X90148456Y-76264882D01*
X90061896Y-76255995D01*
X89863923Y-76132604D01*
X89750711Y-75872937D01*
X89728421Y-75488383D01*
X89743450Y-75279726D01*
X89778226Y-75111382D01*
X89851450Y-75035151D01*
X89987167Y-75006230D01*
X90046351Y-75000976D01*
X90187006Y-75028890D01*
X90230583Y-75154892D01*
X90237895Y-75265348D01*
X90251750Y-75436621D01*
X90303533Y-75489200D01*
X90518343Y-75545773D01*
X90897333Y-75585284D01*
X91532333Y-75627759D01*
X91558611Y-75946320D01*
X91566239Y-76031496D01*
X91603077Y-76192567D01*
X91702738Y-76254656D01*
X91918444Y-76264882D01*
X92033426Y-76265699D01*
X92186952Y-76290536D01*
X92243762Y-76387182D01*
X92252000Y-76604682D01*
X92252000Y-76944481D01*
X92929333Y-76944481D01*
X93606667Y-76944481D01*
X93606667Y-77284280D01*
X93606667Y-77624080D01*
X94284000Y-77624080D01*
X94961333Y-77624080D01*
X94961333Y-77963879D01*
X94961333Y-78303678D01*
X96947439Y-78303678D01*
X98933544Y-78303678D01*
X98958272Y-77645317D01*
X98983000Y-76986956D01*
X99298952Y-76960683D01*
X99614904Y-76934410D01*
X99637619Y-74964362D01*
X99660333Y-72994314D01*
X99956667Y-72994314D01*
X99980081Y-72994364D01*
X100166365Y-73012008D01*
X100247821Y-73096789D01*
X100278517Y-73300072D01*
X100307686Y-73493715D01*
X100384525Y-73588497D01*
X100552554Y-73612920D01*
X100610184Y-73615223D01*
X100837721Y-73656899D01*
X100945470Y-73774320D01*
X100972667Y-74004013D01*
X100984318Y-74184638D01*
X101052453Y-74254860D01*
X101225191Y-74244424D01*
X101332246Y-74233871D01*
X101474779Y-74277010D01*
X101567313Y-74443686D01*
X101617482Y-74635574D01*
X101615638Y-74788052D01*
X101612249Y-74799118D01*
X101669072Y-74879153D01*
X101887349Y-74922064D01*
X101918667Y-74924764D01*
X102110676Y-74959588D01*
X102194842Y-75053528D01*
X102226324Y-75261882D01*
X102228960Y-75292684D01*
X102263641Y-75485521D01*
X102357254Y-75570062D01*
X102564990Y-75601682D01*
X102604696Y-75605140D01*
X102791197Y-75640483D01*
X102872951Y-75735913D01*
X102903944Y-75946320D01*
X102911573Y-76031496D01*
X102948410Y-76192567D01*
X103048071Y-76254656D01*
X103263778Y-76264882D01*
X103378759Y-76265699D01*
X103532285Y-76290536D01*
X103589095Y-76387182D01*
X103597333Y-76604682D01*
X103597333Y-76944481D01*
X106264333Y-76944481D01*
X108931333Y-76944481D01*
X108931333Y-76739054D01*
X108931797Y-76694169D01*
X108971367Y-76435039D01*
X109092744Y-76302262D01*
X109321392Y-76264882D01*
X110275778Y-76264882D01*
X110302056Y-76583444D01*
X110306265Y-76632162D01*
X110340262Y-76815667D01*
X110429387Y-76888819D01*
X110624667Y-76902006D01*
X110662037Y-76901871D01*
X110839468Y-76882595D01*
X110917071Y-76794983D01*
X110946990Y-76588284D01*
X110949627Y-76557482D01*
X110984308Y-76364644D01*
X111077920Y-76280104D01*
X111285657Y-76248484D01*
X111333885Y-76244239D01*
X111514993Y-76208329D01*
X111594388Y-76111402D01*
X111624897Y-75899040D01*
X111632071Y-75816918D01*
X111666701Y-75651342D01*
X111759754Y-75594923D01*
X111963563Y-75601716D01*
X112275667Y-75627759D01*
X112298983Y-76965718D01*
X112304535Y-77284280D01*
X112322300Y-78303678D01*
X112658817Y-78303678D01*
X112995333Y-78303678D01*
X112995333Y-79275473D01*
X112995333Y-80247268D01*
X113312833Y-80273634D01*
X113353151Y-80277127D01*
X113542486Y-80312337D01*
X113625307Y-80406480D01*
X113656324Y-80613722D01*
X113658960Y-80644524D01*
X113693641Y-80837361D01*
X113787254Y-80921901D01*
X113994990Y-80953521D01*
X114307667Y-80979598D01*
X114292908Y-81637959D01*
X114278149Y-82296320D01*
X114610408Y-82296320D01*
X114698340Y-82296843D01*
X114866918Y-82317656D01*
X114931940Y-82401436D01*
X114942667Y-82592026D01*
X114950011Y-82706166D01*
X115012512Y-82857953D01*
X115161136Y-82943825D01*
X115422600Y-82975025D01*
X115823616Y-82962797D01*
X116289923Y-82933444D01*
X116314795Y-83273244D01*
X116339667Y-83613043D01*
X118646833Y-83638559D01*
X120954000Y-83664076D01*
X120954000Y-83319997D01*
X120954000Y-82975919D01*
X121631333Y-82975919D01*
X122308667Y-82975919D01*
X122308667Y-82639693D01*
X122308667Y-82303467D01*
X122964833Y-82278656D01*
X123621000Y-82253846D01*
X123647278Y-81935284D01*
X123673555Y-81616722D01*
X124980778Y-81616722D01*
X126288000Y-81616722D01*
X126288000Y-80937123D01*
X126288000Y-80257524D01*
X126626667Y-80257524D01*
X126726599Y-80256860D01*
X126891776Y-80235166D01*
X126955081Y-80150566D01*
X126965333Y-79960200D01*
X126964291Y-79860901D01*
X126937582Y-79723475D01*
X126837892Y-79671172D01*
X126617057Y-79662876D01*
X126503265Y-79663656D01*
X126344009Y-79683627D01*
X126292739Y-79757921D01*
X126306723Y-79922254D01*
X126315992Y-80021716D01*
X126284193Y-80169768D01*
X126162938Y-80257658D01*
X125926010Y-80298629D01*
X125547194Y-80305921D01*
X125018055Y-80299999D01*
X125018027Y-80618561D01*
X125018000Y-80937123D01*
X124002000Y-80937123D01*
X122986000Y-80937123D01*
X122986000Y-81276922D01*
X122986000Y-81616722D01*
X122308667Y-81616722D01*
X121631333Y-81616722D01*
X121631333Y-81956521D01*
X121631333Y-82296320D01*
X119308111Y-82296320D01*
X116984889Y-82296320D01*
X116958611Y-81977759D01*
X116932333Y-81659197D01*
X116276167Y-81634386D01*
X115620000Y-81609575D01*
X115620000Y-81273349D01*
X115619186Y-81156852D01*
X115594432Y-81002427D01*
X115498108Y-80945361D01*
X115281333Y-80937123D01*
X115184141Y-80936484D01*
X115017455Y-80915178D01*
X114953230Y-80832027D01*
X114942667Y-80644927D01*
X114942483Y-80603268D01*
X114922337Y-80431607D01*
X114833294Y-80356091D01*
X114625167Y-80326365D01*
X114307667Y-80299999D01*
X114282939Y-79641638D01*
X114258211Y-78983277D01*
X113923105Y-78983277D01*
X113588000Y-78983277D01*
X113588000Y-77963879D01*
X113588000Y-76944481D01*
X113249333Y-76944481D01*
X112910667Y-76944481D01*
X112910667Y-75287959D01*
X112910667Y-73631437D01*
X112617895Y-73631437D01*
X112325123Y-73631437D01*
X112300395Y-74285666D01*
X112275667Y-74939895D01*
X111979333Y-74944027D01*
X111936770Y-74944806D01*
X111762843Y-74967400D01*
X111686515Y-75057680D01*
X111656723Y-75266722D01*
X111649094Y-75351898D01*
X111612257Y-75512968D01*
X111512596Y-75575058D01*
X111296889Y-75585284D01*
X111181908Y-75586100D01*
X111028382Y-75610937D01*
X110971572Y-75707583D01*
X110963333Y-75925083D01*
X110963333Y-76264882D01*
X110619556Y-76264882D01*
X110275778Y-76264882D01*
X109321392Y-76264882D01*
X109401966Y-76264154D01*
X109544387Y-76239390D01*
X109599494Y-76142682D01*
X109608667Y-75925083D01*
X109608667Y-75585284D01*
X109947333Y-75585284D01*
X110286000Y-75585284D01*
X110286000Y-75245484D01*
X110286000Y-74905685D01*
X110624667Y-74905685D01*
X110719656Y-74905067D01*
X110887555Y-74884061D01*
X110952519Y-74802029D01*
X110963333Y-74617449D01*
X110963895Y-74580403D01*
X111011838Y-74366527D01*
X111158897Y-74256938D01*
X111435925Y-74226086D01*
X111503547Y-74223849D01*
X111580773Y-74194814D01*
X111621708Y-74103159D01*
X111637842Y-73913128D01*
X111640667Y-73588963D01*
X111640667Y-72951839D01*
X111979333Y-72951839D01*
X112318000Y-72951839D01*
X112318000Y-72272240D01*
X112318000Y-71592641D01*
X112603750Y-71592641D01*
X112768333Y-71603295D01*
X112883956Y-71675191D01*
X112942417Y-71858110D01*
X112955772Y-71938554D01*
X112984063Y-72226417D01*
X112995333Y-72537708D01*
X112995333Y-72951839D01*
X113291667Y-72951839D01*
X113588000Y-72951839D01*
X113588000Y-73923634D01*
X113588000Y-74895429D01*
X113905500Y-74921794D01*
X114223000Y-74948160D01*
X114246854Y-75946320D01*
X114270707Y-76944481D01*
X114606687Y-76944481D01*
X114942667Y-76944481D01*
X114942667Y-77624080D01*
X114942667Y-78303678D01*
X115281333Y-78303678D01*
X115620000Y-78303678D01*
X115620000Y-78940802D01*
X115620000Y-79577926D01*
X115895167Y-79587986D01*
X115904363Y-79588315D01*
X116111868Y-79592134D01*
X116233833Y-79587986D01*
X116247873Y-79594098D01*
X116283189Y-79705447D01*
X116297333Y-79914152D01*
X116297333Y-80250378D01*
X116953500Y-80275189D01*
X117609667Y-80299999D01*
X117635944Y-80618561D01*
X117662222Y-80937123D01*
X119985444Y-80937123D01*
X122308667Y-80937123D01*
X122308667Y-80597324D01*
X122308667Y-80257524D01*
X123324667Y-80257524D01*
X124340667Y-80257524D01*
X124340667Y-79961818D01*
X124344124Y-79881440D01*
X124398363Y-79712393D01*
X124538929Y-79615307D01*
X124792118Y-79578615D01*
X125184223Y-79590750D01*
X125341831Y-79600052D01*
X125519571Y-79593628D01*
X125595035Y-79544148D01*
X125610719Y-79436211D01*
X125615224Y-79293889D01*
X125657005Y-79127594D01*
X125769888Y-79033906D01*
X125986482Y-78992556D01*
X126339392Y-78983277D01*
X126535394Y-78982647D01*
X126777325Y-78973578D01*
X126905700Y-78944275D01*
X126956407Y-78882958D01*
X126965333Y-78777850D01*
X126967861Y-78657884D01*
X127003033Y-78468156D01*
X127106369Y-78361329D01*
X127311417Y-78314228D01*
X127651725Y-78303678D01*
X128235333Y-78303678D01*
X128235333Y-78601003D01*
X128235297Y-78623633D01*
X128219064Y-78810983D01*
X128137612Y-78885177D01*
X127939000Y-78898327D01*
X127642667Y-78898327D01*
X127642667Y-79917725D01*
X127642667Y-79960200D01*
X127642667Y-80937123D01*
G37*
%TD*%
%LPC*%
D12*
%TO.C,U1*%
X86198500Y-94211000D03*
X88738500Y-94211000D03*
X91278500Y-94211000D03*
X93818500Y-94211000D03*
X96358500Y-94211000D03*
X98898500Y-94211000D03*
X101438500Y-94211000D03*
X101438500Y-109451000D03*
X98898500Y-109451000D03*
X96358500Y-109451000D03*
X93818500Y-109451000D03*
X91278500Y-109451000D03*
X88738500Y-109451000D03*
X86198500Y-109451000D03*
%TD*%
D13*
%TO.C,J1*%
X83100000Y-65960000D03*
X83100000Y-89074000D03*
X105452000Y-65960000D03*
X105452000Y-89074000D03*
D14*
X90466000Y-65325000D03*
D15*
X93006000Y-65325000D03*
X95546000Y-65325000D03*
X98086000Y-65325000D03*
%TD*%
D16*
%TO.C,SW1*%
X112190000Y-89960000D03*
X118540000Y-87420000D03*
D17*
X121080000Y-92500000D03*
D18*
X116000000Y-92500000D03*
D17*
X110920000Y-92500000D03*
%TD*%
D16*
%TO.C,SW2*%
X112110000Y-106460000D03*
X118460000Y-103920000D03*
D17*
X121000000Y-109000000D03*
D18*
X115920000Y-109000000D03*
D17*
X110840000Y-109000000D03*
%TD*%
D19*
%TO.C,U2*%
X130000000Y-88880000D03*
D20*
X130000000Y-91420000D03*
X130000000Y-93960000D03*
X130000000Y-96500000D03*
%TD*%
D21*
%TO.C,R1*%
X131500000Y-103500000D03*
X129600000Y-103500000D03*
%TD*%
D22*
%TO.C,J2*%
X110380000Y-64830000D03*
D12*
X110380000Y-67370000D03*
X110380000Y-69910000D03*
X110380000Y-72450000D03*
X110380000Y-74990000D03*
X110380000Y-77530000D03*
X110380000Y-80070000D03*
X110380000Y-82610000D03*
%TD*%
%LPD*%
M02*
