M48
; DRILL file KiCad 10.0.6 date 2026-10-09T17:00:07
; FORMAT={-:-/ absolute / metric / decimal}
; #@! TF.CreationDate,2026-10-09T17:00:07+05:30
; #@! TF.GenerationSoftware,Kicad,Pcbnew,10.0.6
; #@! TF.FileFunction,Plated,1,2,PTH
FMAT,2
METRIC
; #@! TA.AperFunction,Plated,PTH,ComponentDrill
T1C0.700
; #@! TA.AperFunction,Plated,PTH,ComponentDrill
T2C0.762
; #@! TA.AperFunction,Plated,PTH,ComponentDrill
T3C0.800
; #@! TA.AperFunction,Plated,PTH,ComponentDrill
T4C0.889
; #@! TA.AperFunction,Plated,PTH,ComponentDrill
T5C1.000
; #@! TA.AperFunction,Plated,PTH,ComponentDrill
T6C1.500
%
G90
G05
T1
X129.6Y-103.5
X131.5Y-103.5
T2
X110.38Y-64.83
X110.38Y-67.37
X110.38Y-69.91
X110.38Y-72.45
X110.38Y-74.99
X110.38Y-77.53
X110.38Y-80.07
X110.38Y-82.61
T3
X130.0Y-88.88
X130.0Y-91.42
X130.0Y-93.96
X130.0Y-96.5
T4
X86.198Y-94.211
X86.198Y-109.451
X88.739Y-94.211
X88.739Y-109.451
X91.278Y-94.211
X91.278Y-109.451
X93.819Y-94.211
X93.819Y-109.451
X96.358Y-94.211
X96.358Y-109.451
X98.898Y-94.211
X98.898Y-109.451
X101.438Y-94.211
X101.438Y-109.451
T5
X90.466Y-65.325
X93.006Y-65.325
X95.546Y-65.325
X98.086Y-65.325
T6
X112.11Y-106.46
X112.19Y-89.96
X118.46Y-103.92
X118.54Y-87.42
M30
