%TF.GenerationSoftware,KiCad,Pcbnew,10.0.6*%
%TF.CreationDate,2026-10-09T17:00:02+05:30*%
%TF.ProjectId,notastarboy,6e6f7461-7374-4617-9262-6f792e6b6963,rev?*%
%TF.SameCoordinates,Original*%
%TF.FileFunction,Soldermask,Bot*%
%TF.FilePolarity,Negative*%
%FSLAX46Y46*%
G04 Gerber Fmt 4.6, Leading zero omitted, Abs format (unit mm)*
G04 Created by KiCad (PCBNEW 10.0.6) date 2026-10-09 17:00:02*
%MOMM*%
%LPD*%
G01*
G04 APERTURE LIST*
%ADD10C,1.524000*%
%ADD11O,3.800000X2.900000*%
%ADD12R,1.700000X1.700000*%
%ADD13O,1.700000X1.700000*%
%ADD14C,2.200000*%
%ADD15C,1.700000*%
%ADD16C,4.000000*%
%ADD17R,1.500000X1.500000*%
%ADD18C,1.500000*%
%ADD19C,1.400000*%
%ADD20R,1.524000X1.524000*%
G04 APERTURE END LIST*
D10*
%TO.C,U1*%
X86198500Y-94211000D03*
X88738500Y-94211000D03*
X91278500Y-94211000D03*
X93818500Y-94211000D03*
X96358500Y-94211000D03*
X98898500Y-94211000D03*
X101438500Y-94211000D03*
X101438500Y-109451000D03*
X98898500Y-109451000D03*
X96358500Y-109451000D03*
X93818500Y-109451000D03*
X91278500Y-109451000D03*
X88738500Y-109451000D03*
X86198500Y-109451000D03*
%TD*%
D11*
%TO.C,J1*%
X83100000Y-65960000D03*
X83100000Y-89074000D03*
X105452000Y-65960000D03*
X105452000Y-89074000D03*
D12*
X90466000Y-65325000D03*
D13*
X93006000Y-65325000D03*
X95546000Y-65325000D03*
X98086000Y-65325000D03*
%TD*%
D14*
%TO.C,SW1*%
X112190000Y-89960000D03*
X118540000Y-87420000D03*
D15*
X121080000Y-92500000D03*
D16*
X116000000Y-92500000D03*
D15*
X110920000Y-92500000D03*
%TD*%
D14*
%TO.C,SW2*%
X112110000Y-106460000D03*
X118460000Y-103920000D03*
D15*
X121000000Y-109000000D03*
D16*
X115920000Y-109000000D03*
D15*
X110840000Y-109000000D03*
%TD*%
D17*
%TO.C,U2*%
X130000000Y-88880000D03*
D18*
X130000000Y-91420000D03*
X130000000Y-93960000D03*
X130000000Y-96500000D03*
%TD*%
D19*
%TO.C,R1*%
X131500000Y-103500000D03*
X129600000Y-103500000D03*
%TD*%
D20*
%TO.C,J2*%
X110380000Y-64830000D03*
D10*
X110380000Y-67370000D03*
X110380000Y-69910000D03*
X110380000Y-72450000D03*
X110380000Y-74990000D03*
X110380000Y-77530000D03*
X110380000Y-80070000D03*
X110380000Y-82610000D03*
%TD*%
M02*
