%TF.GenerationSoftware,KiCad,Pcbnew,10.0.6*%
%TF.CreationDate,2026-10-09T17:00:02+05:30*%
%TF.ProjectId,notastarboy,6e6f7461-7374-4617-9262-6f792e6b6963,rev?*%
%TF.SameCoordinates,Original*%
%TF.FileFunction,Soldermask,Top*%
%TF.FilePolarity,Negative*%
%FSLAX46Y46*%
G04 Gerber Fmt 4.6, Leading zero omitted, Abs format (unit mm)*
G04 Created by KiCad (PCBNEW 10.0.6) date 2026-10-09 17:00:02*
%MOMM*%
%LPD*%
G01*
G04 APERTURE LIST*
G04 Aperture macros list*
%AMRoundRect*
0 Rectangle with rounded corners*
0 $1 Rounding radius*
0 $2 $3 $4 $5 $6 $7 $8 $9 X,Y pos of 4 corners*
0 Add a 4 corners polygon primitive as box body*
4,1,4,$2,$3,$4,$5,$6,$7,$8,$9,$2,$3,0*
0 Add four circle primitives for the rounded corners*
1,1,$1+$1,$2,$3*
1,1,$1+$1,$4,$5*
1,1,$1+$1,$6,$7*
1,1,$1+$1,$8,$9*
0 Add four rect primitives between the rounded corners*
20,1,$1+$1,$2,$3,$4,$5,0*
20,1,$1+$1,$4,$5,$6,$7,0*
20,1,$1+$1,$6,$7,$8,$9,0*
20,1,$1+$1,$8,$9,$2,$3,0*%
G04 Aperture macros list end*
%ADD10RoundRect,0.152400X0.609600X-1.063600X0.609600X1.063600X-0.609600X1.063600X-0.609600X-1.063600X0*%
%ADD11C,1.524000*%
%ADD12RoundRect,0.152400X-0.609600X1.063600X-0.609600X-1.063600X0.609600X-1.063600X0.609600X1.063600X0*%
%ADD13O,3.800000X2.900000*%
%ADD14R,1.700000X1.700000*%
%ADD15O,1.700000X1.700000*%
%ADD16C,2.200000*%
%ADD17C,1.700000*%
%ADD18C,4.000000*%
%ADD19R,1.500000X1.500000*%
%ADD20C,1.500000*%
%ADD21C,1.400000*%
%ADD22R,1.524000X1.524000*%
G04 APERTURE END LIST*
D10*
%TO.C,U1*%
X86198500Y-93376000D03*
D11*
X86198500Y-94211000D03*
D10*
X88738500Y-93376000D03*
D11*
X88738500Y-94211000D03*
D10*
X91278500Y-93376000D03*
D11*
X91278500Y-94211000D03*
D10*
X93818500Y-93376000D03*
D11*
X93818500Y-94211000D03*
D10*
X96358500Y-93376000D03*
D11*
X96358500Y-94211000D03*
D10*
X98898500Y-93376000D03*
D11*
X98898500Y-94211000D03*
D10*
X101438500Y-93376000D03*
D11*
X101438500Y-94211000D03*
X101438500Y-109451000D03*
D12*
X101438500Y-110286000D03*
D11*
X98898500Y-109451000D03*
D12*
X98898500Y-110286000D03*
D11*
X96358500Y-109451000D03*
D12*
X96358500Y-110286000D03*
D11*
X93818500Y-109451000D03*
D12*
X93818500Y-110286000D03*
D11*
X91278500Y-109451000D03*
D12*
X91278500Y-110286000D03*
D11*
X88738500Y-109451000D03*
D12*
X88738500Y-110286000D03*
D11*
X86198500Y-109451000D03*
D12*
X86198500Y-110286000D03*
%TD*%
D13*
%TO.C,J1*%
X83100000Y-65960000D03*
X83100000Y-89074000D03*
X105452000Y-65960000D03*
X105452000Y-89074000D03*
D14*
X90466000Y-65325000D03*
D15*
X93006000Y-65325000D03*
X95546000Y-65325000D03*
X98086000Y-65325000D03*
%TD*%
D16*
%TO.C,SW1*%
X112190000Y-89960000D03*
X118540000Y-87420000D03*
D17*
X121080000Y-92500000D03*
D18*
X116000000Y-92500000D03*
D17*
X110920000Y-92500000D03*
%TD*%
D16*
%TO.C,SW2*%
X112110000Y-106460000D03*
X118460000Y-103920000D03*
D17*
X121000000Y-109000000D03*
D18*
X115920000Y-109000000D03*
D17*
X110840000Y-109000000D03*
%TD*%
D19*
%TO.C,U2*%
X130000000Y-88880000D03*
D20*
X130000000Y-91420000D03*
X130000000Y-93960000D03*
X130000000Y-96500000D03*
%TD*%
D21*
%TO.C,R1*%
X131500000Y-103500000D03*
X129600000Y-103500000D03*
%TD*%
D22*
%TO.C,J2*%
X110380000Y-64830000D03*
D11*
X110380000Y-67370000D03*
X110380000Y-69910000D03*
X110380000Y-72450000D03*
X110380000Y-74990000D03*
X110380000Y-77530000D03*
X110380000Y-80070000D03*
X110380000Y-82610000D03*
%TD*%
M02*
